HIERARCHY
ROOT Hips
{
	OFFSET -3.958830 18.904000 13.208200
	CHANNELS 6 Xposition Yposition Zposition Zrotation Yrotation Xrotation 
	JOINT LHipJoint
	{
		OFFSET 0.000000 0.000000 0.000000
		CHANNELS 3 Zrotation Yrotation Xrotation
		JOINT LeftUpLeg
		{
			OFFSET 1.800000 -1.400000 0.085000
			CHANNELS 3 Zrotation Yrotation Xrotation
			JOINT LeftLeg
			{
				OFFSET 2.215000 -6.000000 0.000000
				CHANNELS 3 Zrotation Yrotation Xrotation
				JOINT LeftFoot
				{
					OFFSET 2.500000 -6.900000 0.000000
					CHANNELS 3 Zrotation Yrotation Xrotation
					JOINT LeftToeBase
					{
						OFFSET 0.200000 -0.500000 1.950000
						CHANNELS 3 Zrotation Yrotation Xrotation
						End Site
						{
							OFFSET 0.000000 0.000000 0.000000
						}
					}
				}
			}
		}
	}
	JOINT RHipJoint
	{
		OFFSET 0.000000 0.000000 0.000000
		CHANNELS 3 Zrotation Yrotation Xrotation
		JOINT RightUpLeg
		{
			OFFSET -1.800000 -1.400000 0.085000
			CHANNELS 3 Zrotation Yrotation Xrotation
			JOINT RightLeg
			{
				OFFSET -2.215000 -6.000000 0.000000
				CHANNELS 3 Zrotation Yrotation Xrotation
				JOINT RightFoot
				{
					OFFSET -2.500000 -6.900000 0.000000
					CHANNELS 3 Zrotation Yrotation Xrotation
					JOINT RightToeBase
					{
						OFFSET -0.200000 -0.500000 1.950000
						CHANNELS 3 Zrotation Yrotation Xrotation
						End Site
						{
							OFFSET 0.000000 0.000000 0.000000
						}
					}
				}
			}
		}
	}
	JOINT LowerBack
	{
		OFFSET 0.000000 0.000000 0.000000
		CHANNELS 3 Zrotation Yrotation Xrotation
		JOINT Spine
		{
			OFFSET -0.087000 1.940000 -0.288900
			CHANNELS 3 Zrotation Yrotation Xrotation
			JOINT Spine1
			{
				OFFSET 0.000000 1.950000 0.060000
				CHANNELS 3 Zrotation Yrotation Xrotation
				JOINT Neck
				{
					OFFSET 0.000000 0.000000 0.000000
					CHANNELS 3 Zrotation Yrotation Xrotation
					JOINT Neck1
					{
						OFFSET 0.000000 1.600000 0.340000
						CHANNELS 3 Zrotation Yrotation Xrotation
						JOINT Head
						{
							OFFSET 0.000000 1.667000 -0.240000
							CHANNELS 3 Zrotation Yrotation Xrotation
							End Site
							{
								OFFSET 0.000000 0.000000 0.000000
							}
						}
					}
				}
				JOINT LeftShoulder
				{
					OFFSET 0.000000 0.000000 0.000000
					CHANNELS 3 Zrotation Yrotation Xrotation
					JOINT LeftArm
					{
						OFFSET 2.700000 1.550000 -0.730000
						CHANNELS 3 Zrotation Yrotation Xrotation
						JOINT LeftForeArm
						{
							OFFSET 5.450000 0.000000 0.000000
							CHANNELS 3 Zrotation Yrotation Xrotation
							JOINT LeftHand
							{
								OFFSET 3.450000 0.000000 0.000000
								CHANNELS 3 Zrotation Yrotation Xrotation
								JOINT LeftHandIndex1
								{
									OFFSET 0.750000 0.000000 0.000000
									CHANNELS 3 Zrotation Yrotation Xrotation
									End Site
									{
										OFFSET 0.000000 0.000000 0.000000
									}
								}
							}
						}
					}
				}
				JOINT RightShoulder
				{
					OFFSET 0.000000 0.000000 0.000000
					CHANNELS 3 Zrotation Yrotation Xrotation
					JOINT RightArm
					{
						OFFSET -2.700000 1.550000 -0.730000
						CHANNELS 3 Zrotation Yrotation Xrotation
						JOINT RightForeArm
						{
							OFFSET -5.450000 0.000000 0.000000
							CHANNELS 3 Zrotation Yrotation Xrotation
							JOINT RightHand
							{
								OFFSET -3.450000 0.000000 0.000000
								CHANNELS 3 Zrotation Yrotation Xrotation
								JOINT RightHandIndex1
								{
									OFFSET -0.750000 0.000000 0.000000
									CHANNELS 3 Zrotation Yrotation Xrotation
									End Site
									{
										OFFSET 0.000000 0.000000 0.000000
									}
								}
							}
						}
					}
				}
			}
		}
	}
}
MOTION
Frames: 13
Frame Time: 0.016667
0.422540 16.561250 -1.573240 -0.236475 -7.285941 16.048912 -15.130809 11.270968 4.283016 2.102522 -8.307354 -35.573838 -14.305556 11.750903 33.972436 -0.059386 7.336885 2.057072 -0.027540 -0.329650 0.043240 18.653476 -8.765708 4.486353 -2.851898 9.619548 -47.141532 9.860332 -3.453260 11.676936 0.325270 -1.724949 3.823214 -0.074720 0.523550 0.144690 -4.254651 -1.213788 -8.707076 15.015996 -3.029494 17.240050 -6.541356 0.021820 -0.000671 2.925559 -3.179985 -6.184493 -6.206761 4.409960 30.727374 -9.663910 7.078720 -1.202410 -22.616546 -2.229085 0.078218 -42.573418 -2.529152 -6.290326 -21.932842 -30.323473 3.247299 -4.107014 2.979701 0.296910 0.400880 -0.325130 0.071370 15.997615 4.818279 2.241095 54.609094 6.647785 -8.607217 18.423091 30.801749 1.884457 2.094195 -1.389543 -0.383510 0.264740 0.252170 -0.217630 
0.477420 16.504510 -1.583190 0.100568 -6.690401 14.845494 -15.101970 11.339200 4.200478 1.247179 -8.212063 -34.178454 -14.333048 11.861324 34.276423 -0.025428 7.341034 2.037487 0.014370 -0.267730 0.066920 18.677603 -8.677130 4.696284 -5.396171 9.950198 -49.593346 10.497520 -4.790635 18.281372 0.194575 -2.380380 3.549168 -0.060130 0.472080 0.147310 -4.312251 -1.337777 -8.776332 16.403453 -3.804979 19.104600 -7.002948 -0.171790 -1.469856 3.096895 -4.230179 -5.784987 -8.160788 4.885759 31.871530 -9.795790 6.531650 -2.770760 -25.468868 -2.085734 -0.717225 -41.323867 -3.289809 -5.320697 -18.207458 -25.270071 1.818575 -4.083203 2.913979 0.317970 0.351650 -0.274780 0.066480 18.281685 5.516879 2.074403 51.657277 7.347356 -7.876957 17.958304 30.080752 1.957020 2.121222 -1.344025 -0.344230 0.266570 0.238740 -0.207330 
0.539290 16.472790 -1.578410 0.482401 -4.527690 12.568223 -15.080343 11.494886 4.006614 -0.278164 -8.126635 -31.839755 -12.401180 11.296255 35.447695 -0.027233 7.196249 2.066387 0.078260 -0.196490 0.121440 18.700962 -8.586656 4.916085 -9.022001 9.798435 -51.869190 11.373064 -7.287694 27.862034 -0.081941 -3.842123 2.979975 -0.046320 0.382750 0.148730 -4.353815 -1.625593 -8.825372 18.170947 -5.373394 20.920986 -7.565632 -1.082845 -1.761987 3.607488 -4.994932 -6.075070 -9.965315 5.559044 34.520879 -10.163480 6.291480 -4.388510 -26.926918 -3.102578 -0.700292 -41.389937 -4.015133 -4.768879 -14.060868 -21.397898 0.651984 -4.007600 2.859374 0.376830 0.272070 -0.193940 0.067330 18.645667 6.917476 2.414733 50.399136 8.286951 -7.786541 17.367585 30.965228 2.078195 2.139429 -1.313013 -0.305280 0.257320 0.202330 -0.211880 
0.591790 16.451610 -1.573740 1.048205 -1.235746 9.346641 -15.089553 11.624121 3.802172 -2.022781 -8.287849 -29.177128 -9.581650 10.591688 38.093936 0.016290 7.204625 2.033894 0.214170 -0.055320 0.246590 18.717499 -8.460746 5.056800 -13.780715 8.704814 -52.982027 13.274839 -11.323412 38.438109 -0.543034 -6.099991 2.152258 -0.002920 0.234010 0.156440 -4.352292 -2.036880 -8.894335 19.559669 -7.577301 22.696792 -8.105215 -2.828639 -0.881715 4.148023 -5.633074 -6.794303 -11.928409 6.453477 38.160629 -11.077230 6.194000 -6.659630 -27.159509 -4.936573 0.048558 -41.440852 -4.252473 -4.628965 -11.550425 -19.620202 0.104622 -3.865893 2.863417 0.452590 0.161640 -0.073260 0.079170 17.923352 8.782418 2.852234 50.141157 9.911524 -7.860943 16.663263 32.836993 2.171465 2.155930 -1.316118 -0.237980 0.225240 0.112070 -0.229360 
0.629800 16.416350 -1.533530 1.293600 1.768338 5.744135 -15.086127 11.734704 3.547366 -2.780735 -8.036504 -26.031480 -7.631000 10.419260 40.853270 0.100672 7.508303 1.925581 0.267780 0.005850 0.300560 18.745505 -8.409332 5.096868 -17.559265 7.562933 -52.256108 14.565518 -16.047751 48.722478 -1.061774 -8.479505 1.373350 0.014720 0.163420 0.137110 -4.391842 -2.331130 -8.916068 21.002854 -9.455091 23.694265 -8.946019 -4.544528 0.301614 4.500977 -6.233717 -7.585215 -14.053131 7.520379 41.812515 -11.413230 5.629370 -7.840350 -26.412766 -6.170811 0.851485 -41.124045 -3.860129 -4.735848 -11.330570 -19.906402 0.093780 -3.771447 2.828676 0.508410 0.091870 -0.005220 0.079770 16.606556 9.867423 3.356765 50.492897 10.839031 -8.268740 19.030012 36.647433 3.209158 2.152477 -1.310627 -0.218740 0.250180 0.080130 -0.235090 
0.649330 16.380830 -1.483100 1.454633 3.614821 2.231888 -15.064056 11.827782 3.317734 -3.147635 -7.478623 -23.218800 -5.913801 10.499918 43.700633 0.216967 7.931382 1.787031 0.292580 0.039360 0.303930 18.776294 -8.479482 5.054851 -19.423344 7.324901 -50.655134 13.006110 -19.509508 59.019102 -1.550848 -10.465452 0.794645 0.020500 0.144170 0.124510 -4.466469 -2.395225 -8.897464 21.872504 -10.264030 24.106709 -9.788023 -5.555250 1.837816 4.546921 -6.358789 -8.515618 -15.364184 8.539594 45.499986 -10.418000 4.720620 -7.730570 -25.325938 -7.736537 1.877135 -40.025326 -3.307754 -4.924009 -12.777335 -21.370779 0.420925 -3.702922 2.826681 0.536200 0.054150 0.026770 0.088600 15.579659 11.077667 4.015674 50.733192 11.367741 -8.865333 21.797257 41.324014 4.566774 2.133283 -1.330250 -0.203680 0.276160 0.072420 -0.222160 
0.664350 16.339230 -1.416100 1.366347 4.065806 -0.512756 -15.042164 11.862026 3.136879 -2.774569 -6.754662 -21.235663 -5.488798 11.387934 46.341786 0.370096 8.549110 1.593335 0.268530 0.006320 0.266700 18.804487 -8.514755 5.045537 -20.174330 8.138385 -49.232895 10.949314 -22.171068 68.615861 -1.988679 -12.179377 0.359167 -0.000150 0.164370 0.111730 -4.536147 -2.356480 -8.887764 22.530836 -10.114245 23.897331 -10.147262 -5.823412 2.938407 4.471219 -6.374841 -9.208891 -16.097212 9.404386 47.989967 -9.507780 4.171660 -6.033870 -24.024042 -8.036266 2.530348 -39.234864 -2.176661 -5.554251 -15.951081 -25.245769 1.339268 -3.673426 2.865692 0.535770 0.056860 0.004340 0.088600 14.531155 11.240950 4.560334 50.559826 11.233306 -9.173175 27.289869 47.181210 7.465655 2.111383 -1.402733 -0.209900 0.282390 0.093460 -0.215210 
0.683570 16.299550 -1.340360 0.972376 4.230623 -3.299743 -14.996959 11.958033 2.996315 -1.643677 -5.916900 -19.034551 -5.872844 12.629381 48.376401 0.467259 9.218279 1.373805 0.236480 -0.060720 0.262470 18.820682 -8.724325 4.856515 -19.468011 9.083095 -46.237693 7.889043 -23.357426 76.665514 -2.323049 -13.369003 0.063379 -0.018110 0.173360 0.112530 -4.629692 -2.196035 -8.784748 23.599023 -9.957353 23.459147 -11.078034 -6.034438 3.918440 4.617559 -6.173478 -9.324114 -16.126163 9.843857 50.097969 -9.684460 3.880610 -5.520650 -23.173217 -7.303311 2.448445 -37.514573 -1.806464 -5.555236 -19.592081 -27.852722 2.460224 -3.682314 2.869837 0.575440 0.058350 -0.009050 0.061660 13.403915 10.025736 4.780887 50.613468 10.989733 -8.796037 35.443870 53.308031 12.368924 2.095509 -1.471366 -0.247470 0.296530 0.136820 -0.242930 
0.704220 16.254390 -1.245430 0.943053 4.264989 -5.529344 -14.938515 12.062721 2.925495 -0.829341 -5.112940 -16.885841 -6.513111 13.788051 49.584851 0.608416 9.720079 1.227201 0.195640 -0.121720 0.230390 18.835364 -9.071869 4.525577 -18.017300 9.704310 -42.308118 3.512402 -22.632240 83.601737 -2.530019 -14.089983 -0.094003 -0.054570 0.200000 0.138170 -4.746703 -1.923245 -8.624261 24.179576 -9.398753 21.896510 -11.923400 -6.150788 5.194461 4.648609 -5.652891 -9.453180 -15.248977 9.893973 51.819996 -9.968670 4.002890 -3.423060 -21.917839 -6.469459 2.482035 -35.665425 -1.315437 -5.481958 -24.325312 -30.730503 4.158316 -3.708780 2.946319 0.557040 0.089500 -0.033840 0.053930 12.106264 8.514318 5.058203 51.131589 10.475916 -7.866439 45.162689 59.450396 19.120047 2.118281 -1.580188 -0.245080 0.266880 0.164930 -0.239650 
0.718910 16.202560 -1.143460 1.469742 4.058273 -7.267378 -14.890418 12.197657 2.934052 -0.704362 -4.393311 -14.755925 -7.082615 14.757711 50.387387 0.750243 10.114727 1.131934 0.136730 -0.193750 0.184070 18.830749 -9.501258 4.093102 -16.129117 9.972805 -37.609736 -1.146990 -19.944486 88.139333 -2.566108 -14.233354 -0.097251 -0.094600 0.250640 0.149470 -4.824171 -1.642685 -8.430695 23.545658 -8.261081 19.889505 -12.072544 -5.954974 6.492092 4.393966 -5.002260 -9.361942 -13.864468 9.712683 53.015442 -9.974250 4.369950 -0.640490 -20.709505 -5.209757 2.373065 -33.651531 -0.870938 -5.208811 -29.385273 -33.943813 6.421542 -3.762638 3.027559 0.507990 0.142720 -0.086170 0.044790 11.448867 6.620399 5.102849 50.886638 9.944843 -5.995644 57.204197 64.859051 28.328005 2.203571 -1.626420 -0.249260 0.242470 0.196150 -0.230710 
0.726040 16.166150 -1.056640 1.879769 4.241760 -8.952337 -14.855308 12.374035 2.990866 -0.663456 -3.991393 -12.739051 -7.030958 15.265414 51.476772 0.857175 10.462966 1.056827 0.091990 -0.263480 0.163360 18.805036 -9.968768 3.599939 -14.012527 9.526483 -32.137305 -4.434949 -16.966939 89.108646 -2.502552 -13.970043 -0.015069 -0.123540 0.292450 0.159270 -4.857221 -1.415754 -8.212463 22.689318 -7.176029 18.138949 -12.031303 -5.588869 7.858906 4.174998 -4.196299 -9.330823 -12.228806 9.240806 54.091683 -10.058960 4.841110 1.681170 -20.067247 -4.701042 2.280704 -30.662564 -0.756008 -4.716563 -35.313094 -37.062582 9.337442 -3.805167 3.107187 0.481850 0.185380 -0.126830 0.041640 11.289212 5.377721 5.347399 49.856941 8.960650 -4.041224 74.013394 69.465059 41.114980 2.467372 -1.411959 -0.269270 0.227260 0.215060 -0.234550 
0.722930 16.130050 -0.973620 2.756997 4.215829 -10.228052 -14.857596 12.567965 3.100287 -1.139982 -3.696348 -10.789047 -6.975476 15.648906 52.412006 0.904055 10.791288 0.981583 0.035350 -0.347450 0.130720 18.747715 -10.407253 3.097207 -12.478749 8.600600 -26.671549 -6.861422 -13.725009 87.070764 -2.332971 -13.394661 0.141550 -0.140980 0.355510 0.161650 -4.788612 -1.290976 -7.995923 20.669926 -5.674973 16.436633 -11.176896 -4.795965 9.015257 3.808500 -3.434947 -9.040214 -10.660216 8.679656 54.675530 -9.930570 5.240350 3.151710 -19.132332 -3.757657 1.887856 -28.241809 -1.451991 -3.777785 -40.894749 -39.569968 12.455136 -3.885221 3.139293 0.477300 0.239330 -0.182480 0.027440 11.162661 3.940873 5.249123 48.434873 8.016586 -3.311614 90.902041 70.168756 53.806139 2.734428 -0.910640 -0.321610 0.242250 0.263320 -0.252720 
0.713550 16.095470 -0.920830 3.747464 4.468365 -10.931697 -14.892854 12.716467 3.254482 -2.040372 -3.806861 -9.600883 -6.822661 15.692062 53.241616 0.970448 10.976285 0.958397 0.033430 -0.346350 0.120970 18.670160 -10.783120 2.619016 -11.870917 7.039541 -21.745407 -7.613148 -11.696054 82.052293 -2.109381 -12.607797 0.357096 -0.126640 0.395080 0.166770 -4.644142 -1.223176 -7.796771 18.010553 -4.210134 14.743593 -9.793164 -3.933242 10.144288 3.365543 -2.809489 -8.596315 -9.323246 7.864946 54.341905 -9.869790 5.440410 3.978920 -18.099379 -2.879944 1.417445 -26.366870 -3.050857 -2.600611 -45.719418 -42.591005 16.085681 -3.932859 3.205172 0.440110 0.282150 -0.214120 0.046250 11.156367 2.882260 5.024807 46.912262 7.301561 -3.979398 108.242087 67.918309 69.260936 2.589480 -0.749525 -0.332010 0.244260 0.255680 -0.246330 
